<svg xmlns="http://www.w3.org/2000/svg" xmlns:xlink="http://www.w3.org/1999/xlink" id="Layer_1" x="0px" y="0px" viewBox="0 0 292.9 48.9" style="enable-background:new 0 0 292.9 48.9;" xml:space="preserve"><g>	<path d="M23.1,14.7v28.6c0,2.4-1.8,3.6-5.4,3.6c-3.5,0-5.3-1.2-5.4-3.5V14.7H5.2c-2.4,0-3.6-1.8-3.6-5.4C1.6,5.8,2.8,4,5.1,4h25.2  c2.3,0,3.5,1.8,3.5,5.4c0,3.6-1.2,5.4-3.6,5.4H23.1z"></path>	<path d="M48.2,15c1.1-0.2,2.3-0.3,3.6-0.3c9.5,0,14.3,6,14.3,17.9v7.2c0,2.4-1.8,3.6-5.4,3.6c-3.6,0-5.4-1.2-5.4-3.6v-7.2  c0-4.8-1.2-7.2-3.6-7.2c-2.4,0-3.6,2.4-3.6,7.2v3.6c0,2.4-1.8,3.6-5.4,3.6c-3.5,0-5.3-1.2-5.4-3.5V7.5c0-2.3,1.8-3.5,5.4-3.5  c3.6,0,5.4,1.2,5.4,3.6V15z"></path>	<path d="M98.3,4c2.4,0,3.6,1.8,3.6,5.4c0,3.6-1.2,5.4-3.6,5.4H84c-1.7-0.1-2.8,1.1-3.3,3.6h14c2.4,0,3.6,1.8,3.6,5.4  S97.1,29,94.7,29h-14c0.5,2.4,1.6,3.6,3.3,3.6h14.3c2.4,0,3.6,1.8,3.6,5.4c0,3.6-1.2,5.4-3.6,5.4H84c-9.5,0.1-14.3-5.9-14.3-17.8  V22c0-12,4.8-18,14.3-18H98.3z"></path>	<path d="M146.8,21.5c0.8,0.5,1.5,0.9,1.9,1.2c0.4,0.3,0.9,0.7,1.3,1.2c1.3,1.8,2,4,2,6.4c0,3.8-1.4,6.9-4.2,9.3  c-3,2.5-7.2,3.7-12.6,3.7c-4.6,0-8.4-1.1-11.4-3.3c-2.7-1.9-4-4-4-6.3c0-3.4,2.1-5.1,6.2-5.1c1.5,0,3.1,0.7,4.7,2c1.6,1.3,4,2,7,2  c2.4,0,3.6-0.8,3.6-2.3c0-0.8-1.8-1.5-5.3-2.2c-0.5-0.1-1.6-0.5-3.3-0.9c-1.6-0.4-2.9-0.8-3.8-1.1c-3.3-1.1-5.7-2.5-7.1-4.3  c-1.3-1.6-1.9-3.6-1.9-5.8c0-3.6,1.4-6.5,4.2-8.6c3-2.3,7.2-3.5,12.6-3.5c4.6,0,8.4,1,11.4,3.1c2.7,1.8,4,3.7,4,5.8  c0,3.2-2.1,4.8-6.2,4.8c-1.5,0-3.1-0.6-4.7-1.8s-4-1.8-7-1.8c-2.4,0.1-3.6,0.8-3.6,2.2c0,0.7,1.8,1.4,5.3,2  c0.5,0.1,1.6,0.4,3.3,0.9c1.6,0.4,2.9,0.7,3.8,1C144.7,20.6,146,21.1,146.8,21.5z"></path>	<path d="M183.4,4c2.4,0,3.6,1.8,3.6,5.4c0,3.6-1.2,5.4-3.6,5.4h-14.3c-1.7-0.1-2.8,1.1-3.3,3.6h14c2.4,0,3.6,1.8,3.6,5.4  s-1.2,5.4-3.6,5.4h-14c0.5,2.4,1.6,3.6,3.3,3.6h14.3c2.4,0,3.6,1.8,3.6,5.4c0,3.6-1.2,5.4-3.6,5.4h-14.3  c-9.5,0.1-14.3-5.9-14.3-17.8V22c0-12,4.8-18,14.3-18H183.4z"></path>	<path d="M206.7,22.2l5.8-16c0.8-2.3,2.9-2.8,6.2-1.6c3.4,1.2,4.7,3,3.9,5.2c-7,20-10.9,30.5-11.6,31.7c-0.7,1.2-2.1,1.8-4.3,1.8  c-2.4,0-3.9-0.6-4.5-1.8c-0.6-1.2-4.4-11.8-11.4-31.7c-0.8-2.3,0.5-4,3.9-5.2c3.3-1.2,5.4-0.7,6.2,1.6L206.7,22.2z"></path>	<path d="M255,4c2.4,0,3.6,1.8,3.6,5.4c0,3.6-1.2,5.4-3.6,5.4h-14.3c-1.7-0.1-2.8,1.1-3.3,3.6h14c2.4,0,3.6,1.8,3.6,5.4  s-1.2,5.4-3.6,5.4h-14c0.5,2.4,1.6,3.6,3.3,3.6H255c2.4,0,3.6,1.8,3.6,5.4c0,3.6-1.2,5.4-3.6,5.4h-14.3  c-9.5,0.1-14.3-5.9-14.3-17.8V22c0-12,4.8-18,14.3-18H255z"></path>	<path d="M276.5,14.7c-2.4,0-3.6,2.4-3.6,7.2v14.3c0,2.4-1.8,3.6-5.4,3.6c-3.5,0-5.3-1.2-5.4-3.5V21.9C262.2,10,267,4,276.5,4  s14.3,6,14.3,17.9v17.9c0,2.4-1.8,3.6-5.4,3.6c-3.6,0-5.4-1.2-5.4-3.6V21.9C280.1,17.1,278.9,14.7,276.5,14.7z"></path></g></svg>